<?xml version="1.0" encoding="iso-8859-1"?>
<!-- Uploaded to: SVG Repo, www.svgrepo.com, Generator: SVG Repo Mixer Tools -->
<svg version="1.1" id="Layer_1" xmlns="http://www.w3.org/2000/svg" xmlns:xlink="http://www.w3.org/1999/xlink" 
	 viewBox="0 0 512 512" xml:space="preserve">
<g>
	<path style="fill:#FF5023;" d="M376.571,388.165V123.832c0,0-3.085-25.776,0-25.776s-55.093,0-55.093,0v314.804h55.093V388.165z"/>
	<path style="fill:#FF5023;" d="M445.412,441.3h47.98c10.278,0,18.609-8.331,18.609-18.609v-34.526V123.832V89.306
		c0-10.278-8.331-18.609-18.609-18.609h-47.98L445.412,441.3L445.412,441.3z"/>
</g>
<path style="fill:#FF7956;" d="M343.386,70.697h-53.135v53.135v264.334V441.3l0,0h53.135l0,0h75.105h34.526
	c10.278,0,18.609-8.331,18.609-18.609v-34.526V123.832V89.306c0-10.278-8.331-18.609-18.609-18.609h-60.654H343.386z
	 M343.386,151.168v-27.336h56.497c10.278,0,18.609,8.331,18.609,18.609v245.725h-75.105V213.488L343.386,151.168L343.386,151.168z"
	/>
<g>
	<rect x="203.775" y="70.7" style="fill:#3C66B1;" width="53.138" height="370.604"/>
	<polygon style="fill:#3C66B1;" points="42.786,70.697 95.92,70.697 95.92,107.474 95.92,164.339 95.92,229.431 95.92,282.566 
		95.92,441.3 42.786,441.3 	"/>
</g>
<polygon style="fill:#52A2E7;" points="158.551,386.354 158.551,441.3 211.686,441.3 211.686,282.566 211.686,229.431 
	211.686,70.696 158.551,70.696 158.551,229.431 53.135,229.431 53.135,70.696 0,70.696 0,441.3 53.135,441.3 53.135,282.566 
	158.551,282.566 158.551,330.266 "/>
<polygon style="fill:#ACD4F3;" points="211.686,265.676 211.686,229.461 211.686,180.317 158.551,201.779 158.551,229.461 
	90.015,229.461 0,265.819 0,351.178 53.135,329.717 53.135,282.596 158.551,282.596 158.551,287.137 "/>
<g>
	<polygon style="fill:#FFBCAB;" points="290.251,226.377 290.251,296.628 343.386,275.873 343.386,205.622 	"/>
	<polygon style="fill:#FFBCAB;" points="471.627,155.527 418.493,176.283 418.493,246.534 471.627,225.778 	"/>
</g>
</svg>