<?xml version="1.0" encoding="iso-8859-1"?>
<!-- Uploaded to: SVG Repo, www.svgrepo.com, Generator: SVG Repo Mixer Tools -->
<svg height="800px" width="800px" version="1.1" id="Layer_1" xmlns="http://www.w3.org/2000/svg" xmlns:xlink="http://www.w3.org/1999/xlink" 
	 viewBox="0 0 512 512" xml:space="preserve">
<path style="fill:#7B7979;" d="M392.841,204.127c-2.478,0-4.922-1.145-6.491-3.303L256,21.594l-130.348,179.23
	c-2.604,3.582-7.619,4.374-11.2,1.768c-3.581-2.605-4.373-7.619-1.768-11.2L249.517,3.247c3.148-4.329,9.819-4.329,12.968,0
	l136.833,188.145c2.605,3.581,1.813,8.595-1.768,11.2C396.126,203.628,394.475,204.126,392.841,204.127z"/>
<path style="fill:#E9E9E9;" d="M25.629,267.732v220.216C25.629,501.21,36.419,512,49.682,512h412.637
	c13.263,0,24.053-10.791,24.053-24.053V267.732H25.629z"/>
<path style="fill:#6DDAE1;" d="M462.319,188.091H49.682c-13.283,0-24.053,10.769-24.053,24.053v77.503h460.742v-77.503
	C486.371,198.859,475.603,188.091,462.319,188.091z"/>
<path style="fill:#D3D2D2;" d="M59.303,487.948V267.732H25.629v220.216C25.629,501.21,36.419,512,49.682,512h33.674
	C70.093,512,59.303,501.21,59.303,487.948z"/>
<path style="fill:#4FC4D4;" d="M83.356,188.091H49.682c-13.283,0-24.053,10.768-24.053,24.053v77.503h33.674v-77.503
	C59.303,198.859,70.072,188.091,83.356,188.091z"/>
<g>
	<path style="fill:#FFD791;" d="M119.167,213.747c-13.852,0-25.122,11.269-25.122,25.122s11.269,25.122,25.122,25.122
		s25.122-11.269,25.122-25.122S133.02,213.747,119.167,213.747z"/>
	<path style="fill:#FFD791;" d="M392.833,213.747c-13.852,0-25.122,11.269-25.122,25.122s11.269,25.122,25.122,25.122
		s25.122-11.269,25.122-25.122S406.685,213.747,392.833,213.747z"/>
</g>
<path style="fill:#4FC4D4;" d="M341.521,246.887H170.48c-4.428,0-8.018-3.589-8.018-8.018c0-4.429,3.59-8.018,8.018-8.018h171.041
	c4.428,0,8.018,3.589,8.018,8.018C349.538,243.298,345.949,246.887,341.521,246.887z"/>
<path style="fill:#FF8C78;" d="M442.972,434.855l-14.117-10.536l10.416-21.906c1.39-2.923,0.886-6.396-1.279-8.802l-17.042-18.957
	l10.943-23.024c1.389-2.923,0.885-6.395-1.279-8.801l-16.221-18.044l10.536-14.119c4.182-5.602-0.661-13.744-7.578-12.729
	L70.36,348.341c-6.912,1.003-9.254,10.171-3.643,14.36l14.118,10.537l-10.416,21.914c-1.389,2.923-0.885,6.395,1.279,8.801
	l17.042,18.958l-10.943,23.017c-1.39,2.923-0.886,6.395,1.279,8.802l16.221,18.045l-10.536,14.116
	c-4.183,5.606,0.661,13.74,7.577,12.73l346.992-50.407C446.241,448.211,448.583,439.043,442.972,434.855z"/>
<path style="fill:#DF7A6E;" d="M70.36,348.341c-6.912,1.003-9.254,10.171-3.643,14.36l14.118,10.537l-10.416,21.914
	c-1.389,2.923-0.885,6.395,1.279,8.801l17.042,18.958l-10.943,23.017c-1.39,2.923-0.886,6.395,1.279,8.802l16.221,18.045
	l-10.536,14.116c-4.183,5.606,0.661,13.74,7.577,12.73l309.405-44.946L117.188,341.539L70.36,348.341z"/>
<g>
	<path style="fill:#FFD6C4;" d="M226.764,445.273c-11.747,0.001-22.051-8.639-23.789-20.598l-5.225-35.968
		c-1.907-13.124,7.219-25.354,20.344-27.261l2.118-0.307c6.357-0.925,12.694,0.683,17.842,4.526
		c5.148,3.842,8.493,9.461,9.417,15.818l5.225,35.969c0.925,6.357-0.683,12.694-4.526,17.844c-3.843,5.148-9.461,8.492-15.819,9.416
		C230.494,444.984,228.648,445.273,226.764,445.273z M223.686,376.923c-1.097,0-2.205,0.234-3.288,0.391
		c-4.373,0.636-7.416,4.712-6.78,9.088l5.225,35.968c0.636,4.375,4.71,7.417,9.088,6.783c1.976-0.288,3.905-0.498,5.59-1.689
		c2.442-1.728,3.736-4.747,3.308-7.705l-5.225-35.969C231.039,379.911,227.616,376.923,223.686,376.923z"/>
	<path style="fill:#FFD6C4;" d="M331.689,430.198c-3.918,0-7.345-2.875-7.925-6.866l-9.836-67.706
		c-0.437-3.011,0.92-6.085,3.439-7.79c1.66-1.125,3.535-1.325,5.46-1.604c10.594-1.539,21.157,1.139,29.739,7.544
		c8.581,6.404,14.155,15.767,15.694,26.364l2.919,20.101c1.907,13.124-7.22,25.354-20.344,27.261l-17.985,2.612
		C332.462,430.171,332.073,430.198,331.689,430.198z M331.054,361.967l7.426,51.125l10.05-1.459
		c4.374-0.636,7.417-4.712,6.782-9.088l-2.919-20.101c-0.924-6.357-4.269-11.975-9.417-15.818
		C339.437,363.987,335.337,362.4,331.054,361.967z"/>
	<path style="fill:#FFD6C4;" d="M272.457,438.803c-1.718,0-3.403-0.553-4.796-1.592c-1.704-1.271-2.833-3.169-3.139-5.273
		l-9.836-67.706c-0.637-4.382,2.4-8.449,6.782-9.087c4.376-0.647,8.451,2.399,9.087,6.782l8.684,59.771l25.919-3.765
		c4.378-0.638,8.451,2.4,9.087,6.782c0.637,4.382-2.4,8.449-6.782,9.087l-33.852,4.919
		C273.225,438.777,272.84,438.803,272.457,438.803z"/>
	<path style="fill:#FFD6C4;" d="M153.962,456.018c-3.918,0-7.344-2.875-7.925-6.866c-0.637-4.382,2.399-8.449,6.781-9.087
		l17.984-2.613c2.12-0.308,3.993-1.423,5.273-3.14c1.282-1.716,1.817-3.829,1.509-5.948l-0.308-2.115
		c-0.636-4.377-4.712-7.414-9.088-6.784l-2.113,0.308c-13.13,1.904-25.357-7.221-27.262-20.344l-0.308-2.116
		c-1.907-13.124,7.22-25.354,20.344-27.261l17.985-2.612c4.383-0.649,8.451,2.4,9.087,6.782c0.636,4.383-2.4,8.451-6.782,9.087
		l-17.984,2.612c-4.374,0.636-7.417,4.712-6.782,9.088l0.308,2.116c0.636,4.375,4.712,7.417,9.088,6.782l2.113-0.308
		c13.127-1.897,25.356,7.221,27.262,20.345l0.308,2.115c0.924,6.358-0.684,12.697-4.526,17.845s-9.461,8.493-15.819,9.417
		l-17.984,2.612C154.734,455.99,154.345,456.018,153.962,456.018z"/>
</g>
</svg>